<svg width="140" height="140" viewBox="0 0 101 101" fill="none" xmlns="http://www.w3.org/2000/svg">
  <rect width="100.562" height="100.562" rx="50.2812" fill="url(#paint0_radial_7_9508)"/>
  <circle cx="50.2813" cy="50.2812" r="40.5494" fill="url(#paint1_radial_7_9508)"/>
  <circle cx="50.2813" cy="50.2812" r="28.7901" stroke="#26C1A2" stroke-width="0.810988"/>
  <path d="M68.9307 58.8274L50.2811 60.7755V60.5084L68.8939 58.5652L68.9307 58.8274Z" fill="#CC4760"/>
  <path d="M68.8938 58.5639L50.2811 60.5067V43.0061L51.5129 42.8848L65.0476 41.5482L65.5892 41.4948L68.8938 58.5639Z" fill="#F05C42"/>
  <path opacity="0.5" d="M67.7183 56.4239C67.3926 57.5356 67.1739 57.961 66.5925 58.5096C60.7269 60.102 57.1005 58.0513 50.2811 60.251V43.5958C50.6671 43.3359 51.0803 43.0996 51.5129 42.888C52.7477 42.2828 54.1438 41.8791 55.5108 41.6921C58.5015 41.2832 62.1356 42.1493 64.9319 41.0232C64.9698 41.1968 65.0086 41.3725 65.0476 41.5514C65.943 45.6917 66.9259 51.2233 67.7183 56.4239Z" fill="black"/>
  <path d="M66.0649 58.0019C60.3901 59.5945 56.8815 57.7046 50.2836 59.9036C50.2047 53.7427 50.1797 48.1638 50.2836 43.0888C51.7199 42.0864 53.557 41.4373 55.3436 41.1851C58.2367 40.7763 61.7532 41.6419 64.4583 40.5164C65.3543 44.7071 66.3554 50.4925 67.155 55.9163C66.8391 57.0281 66.6277 57.4542 66.0649 58.0019Z" fill="#B3CDFF"/>
  <path d="M67.1547 55.9184C64.0117 57.8699 59.6116 56.4809 56.0606 57.0237C54.0042 57.3384 51.9406 58.1799 50.2834 59.4968C50.2047 53.376 50.1799 47.8316 50.2834 42.7866C51.7156 41.7897 53.5485 41.1439 55.3301 40.893C58.215 40.4859 61.7211 41.346 64.4189 40.2264C65.4306 44.9531 66.3483 50.1623 67.1547 55.9184Z" fill="#DAE2F2"/>
  <path d="M66.5821 55.6385C63.544 57.5702 59.2929 56.1758 55.8617 56.7052C53.8748 57.0122 51.8821 57.8429 50.281 59.1476C50.2056 53.0604 50.1805 47.5453 50.281 42.5258C51.6653 41.5378 53.4375 40.9002 55.1593 40.6554C57.9478 40.2583 61.3366 41.1242 63.9448 40.0174C64.9208 44.7245 65.8054 49.9102 66.5821 55.6385Z" fill="#E6EEFF"/>
  <path d="M66.1235 55.3288C63.1698 57.2422 59.0387 55.8461 55.7039 56.3643C53.773 56.6647 51.837 57.4859 50.2811 58.779C50.2811 52.679 50.2811 47.3507 50.2811 42.251C51.6269 41.2712 53.3506 40.6407 55.0246 40.401C57.7357 40.0122 61.0303 40.8813 63.5666 39.7859C64.5135 44.4711 65.3712 49.631 66.1235 55.3288Z" fill="white"/>
  <path d="M31.6328 58.8276L50.2824 60.7758V60.5087L31.6696 58.5654L31.6328 58.8276Z" fill="#CC4760"/>
  <path d="M50.2807 43.0064V60.507L31.668 58.5642L34.9726 41.4951L35.5142 41.5485L49.0488 42.8851L50.2807 43.0064Z" fill="#F05C42"/>
  <path opacity="0.5" d="M50.2809 43.596V60.2512C43.4616 58.0515 39.8351 60.1022 33.9696 58.5098C33.3882 57.9612 33.1694 57.5358 32.8438 56.4241C33.6361 51.2234 34.619 45.692 35.5145 41.5516C35.5534 41.3728 35.5922 41.1972 35.6302 41.0234C38.4263 42.1495 42.0606 41.2833 45.0512 41.6923C46.4182 41.8793 47.8143 42.283 49.049 42.8882C49.4818 43.0998 49.8949 43.3362 50.2809 43.596Z" fill="black"/>
  <path d="M34.5003 58.0021C40.175 59.5947 43.6837 57.7048 50.2816 59.9038C50.3605 53.7429 50.3855 48.164 50.2816 43.089C48.8453 42.0866 47.0081 41.4375 45.2216 41.1853C42.3285 40.7765 38.812 41.6421 36.1069 40.5166C35.2109 44.7073 34.2098 50.4927 33.4102 55.9165C33.7261 57.0283 33.9375 57.4544 34.5003 58.0021Z" fill="#B3CDFF"/>
  <path d="M33.4102 55.9166C36.5532 57.8682 40.9533 56.4791 44.5043 57.0219C46.5607 57.3366 48.6244 58.1781 50.2816 59.495C50.3603 53.3742 50.3851 47.8299 50.2816 42.7849C48.8493 41.7879 47.0163 41.1422 45.2349 40.8912C42.35 40.4841 38.8439 41.3442 36.1461 40.2246C35.1343 44.9514 34.2166 50.1605 33.4102 55.9166Z" fill="#DAE2F2"/>
  <path d="M33.9805 55.6387C37.0185 57.5704 41.2697 56.176 44.7008 56.7054C46.6877 57.0124 48.6803 57.8431 50.2814 59.1478C50.3568 53.0606 50.382 47.5455 50.2814 42.526C48.8972 41.538 47.125 40.9004 45.4031 40.6556C42.6146 40.2585 39.2257 41.1244 36.6176 40.0176C35.6418 44.7247 34.7571 49.9104 33.9805 55.6387Z" fill="#E6EEFF"/>
  <path d="M34.4336 55.329C37.3873 57.2424 41.5184 55.8463 44.8531 56.3645C46.784 56.6649 49.1764 57.2256 50.2759 58.7792C50.2759 52.7648 50.2759 47.5913 50.2759 42.2512C48.9301 41.2714 47.2065 40.6409 45.5325 40.4012C42.8213 40.0124 39.5268 40.8815 36.9904 39.7861C36.0436 44.4713 35.1858 49.6312 34.4336 55.329Z" fill="white"/>
  <path d="M48.9141 43.0775C48.5067 42.9926 48.6889 42.9949 48.3536 42.7163C48.2309 42.7394 47.8361 42.7014 47.7356 42.4187C47.5738 42.2517 47.3098 42.1353 47.1227 42.0987C46.653 42.1457 46.4145 41.9633 46.4596 41.9272C46.0202 41.9627 45.8559 41.7159 45.7927 41.7829C45.4668 41.7422 45.4566 41.7339 45.1172 41.6947C44.9575 41.529 44.5979 41.7085 44.4952 41.6731C44.1142 41.5805 43.9226 41.8145 43.8734 41.6784C43.6168 41.7698 43.5516 41.4663 43.2492 41.6381C43.0897 41.8099 42.5894 41.5298 42.6262 41.6635C42.6288 41.6949 42.313 41.7104 42.005 41.7199C41.8348 41.8257 41.3499 41.6357 41.3825 41.7479C41.1031 41.9252 40.917 41.9114 40.7612 41.8192C40.5128 41.9473 40.2114 41.9004 40.1372 41.8214C39.9675 41.8268 39.5595 41.8449 39.5174 41.7313C39.2102 41.7111 38.9144 41.6585 38.8937 41.7171C38.6289 41.5499 38.6023 41.663 38.2914 41.5478C37.9292 41.6141 37.8456 41.5837 37.6797 41.3955" stroke="#84A4E3" stroke-width="0.405494" stroke-miterlimit="10" stroke-linecap="round" stroke-linejoin="round"/>
  <path d="M37.543 42.3428C37.5436 42.4827 37.8251 42.333 38.147 42.5361C38.4366 42.4485 38.8181 42.544 38.7638 42.683C39.1246 42.6212 39.1409 42.6309 39.3935 42.7459C39.8303 42.5906 39.8156 42.8313 40.0253 42.752C40.2118 42.8042 40.6618 42.9481 40.6579 42.7916C40.8019 42.688 40.8422 42.7219 41.2899 42.7658C41.3045 42.8288 41.4419 42.6654 41.9184 42.6838C42.2301 42.6895 42.3959 42.8235 42.5484 42.6291C42.5848 42.8037 43.0046 42.8192 43.1818 42.6522C43.2628 42.7576 43.7554 42.6292 43.8108 42.5504C44.0258 42.4704 44.216 42.5116 44.4439 42.5496C44.8609 42.6326 44.8252 42.7543 45.0707 42.6523C45.4247 42.7904 45.3383 42.7124 45.7562 42.7161C45.8601 42.6916 46.4444 42.7647 46.4326 42.8553C46.4264 43.0872 47.0395 42.8693 47.0832 43.0942C47.2736 43.1017 47.5045 43.2409 47.7198 43.3646C47.7967 43.63 48.2661 43.6363 48.3258 43.7025C48.2883 43.8518 48.6269 43.8878 48.9621 43.9931" stroke="#84A4E3" stroke-width="0.405494" stroke-miterlimit="10" stroke-linecap="round" stroke-linejoin="round"/>
  <path d="M37.418 43.2642C37.7351 43.2313 37.882 43.3288 38.0261 43.4635C38.0819 43.6114 38.6727 43.6418 38.6452 43.6356C39.0799 43.6398 39.091 43.7725 39.2803 43.7385C39.2348 43.7435 39.9144 43.6451 39.9227 43.7085C40.2129 43.8942 40.1511 43.7341 40.5614 43.6659C40.6572 43.5095 41.0749 43.5472 41.2017 43.6749C41.6791 43.5554 41.7816 43.5468 41.8401 43.6247C42.013 43.5094 42.4954 43.4247 42.4791 43.5798C42.6957 43.6466 42.8836 43.5918 43.1179 43.5306C43.5486 43.6691 43.482 43.4347 43.7588 43.5276C43.7379 43.4675 43.9929 43.5936 44.3989 43.5253C44.3488 43.4992 44.9255 43.6073 45.0337 43.6092C45.327 43.8147 45.3294 43.8066 45.728 43.6579C45.9924 43.856 46.0582 43.8587 46.4108 43.8013C46.7911 43.9365 46.8713 43.8291 47.0869 43.984C47.2864 44.0323 47.7223 44.245 47.7311 44.2681C47.9023 44.4901 48.2565 44.6173 48.3416 44.6222C48.3455 44.7732 48.6248 44.7791 48.9493 44.9798" stroke="#84A4E3" stroke-width="0.405494" stroke-miterlimit="10" stroke-linecap="round" stroke-linejoin="round"/>
  <path d="M37.3008 44.1914C37.7627 44.4137 37.4589 44.3426 37.8921 44.4836C38.0312 44.6264 38.4004 44.4771 38.534 44.6042C39.003 44.8244 38.7873 44.6379 39.1841 44.6231C39.2525 44.48 39.6553 44.6468 39.8301 44.6706C40.0286 44.7738 40.0469 44.5637 40.4776 44.6399C40.856 44.5875 41.0218 44.7623 41.1267 44.6433C41.2105 44.4601 41.5009 44.4406 41.7731 44.5832C42.0298 44.5485 42.1332 44.7108 42.4189 44.514C42.6505 44.3519 42.9392 44.4361 43.0671 44.4788C43.0247 44.6038 43.4144 44.5166 43.7155 44.4292C44.1464 44.3623 44.3515 44.249 44.3655 44.4412C44.7364 44.3382 44.9321 44.5192 45.0118 44.5124C45.3575 44.3721 45.658 44.5445 45.6113 44.5785C45.6967 44.6277 45.9282 44.5548 46.1921 44.7527C46.177 44.846 46.7264 44.9943 46.7787 44.8883C47.0506 45.0874 47.074 45.1509 47.3669 45.0395C47.6001 45.0443 47.6952 45.1979 47.9058 45.3294C47.8291 45.5424 48.0157 45.4571 48.4602 45.5845C48.41 45.7794 48.6136 45.7361 48.9492 45.9612" stroke="#84A4E3" stroke-width="0.405494" stroke-miterlimit="10" stroke-linecap="round" stroke-linejoin="round"/>
  <path d="M37.1484 45.1855C37.2717 45.365 37.5599 45.3518 37.7761 45.3927C38.2 45.4944 38.1077 45.6552 38.4209 45.5186C38.4874 45.5263 38.769 45.6404 39.0676 45.6614C39.2663 45.6066 39.5713 45.697 39.7269 45.6686C40.1638 45.5077 40.1525 45.6558 40.3828 45.5924C40.8624 45.721 40.5981 45.5369 41.0409 45.6049C41.1905 45.6754 41.5629 45.5209 41.6994 45.5955C42.1757 45.7637 41.9524 45.5137 42.3493 45.4652C42.4236 45.2888 42.8357 45.4836 43.0096 45.4913C43.2142 45.5784 43.2325 45.2955 43.6626 45.3728C44.0474 45.3214 44.2169 45.4806 44.3214 45.3803C44.4116 45.216 44.7015 45.3123 44.9727 45.4929C45.2193 45.4955 45.3156 45.6613 45.583 45.513C45.8015 45.4007 46.0689 45.5527 46.1775 45.6544C46.1172 45.8396 46.4808 45.8569 46.7604 45.8366C47.1676 45.8377 47.3622 45.7337 47.3517 45.9974C47.6921 45.9658 47.8434 46.2267 47.8952 46.2908C48.2185 46.2208 48.4875 46.4964 48.4246 46.6049C48.4826 46.7246 48.6971 46.6707 48.9404 46.9417" stroke="#84A4E3" stroke-width="0.405494" stroke-miterlimit="10" stroke-linecap="round" stroke-linejoin="round"/>
  <path d="M37.0195 46.1094C37.1087 46.3682 37.2645 46.2842 37.6427 46.3553C37.7896 46.2374 38.1863 46.5784 38.301 46.4559C38.5298 46.6545 38.8154 46.6379 38.9567 46.5635C39.0112 46.5312 39.6428 46.6215 39.621 46.5735C39.573 46.6069 39.9757 46.6455 40.286 46.5809C40.3782 46.575 40.699 46.3886 40.949 46.5236C41.1106 46.575 41.1517 46.67 41.6184 46.5471C41.8795 46.5831 42.067 46.5155 42.2817 46.4844C42.6049 46.4194 42.6791 46.2473 42.9423 46.3871C43.3968 46.3789 43.3086 46.1489 43.6067 46.3258C43.6368 46.4754 44.1716 46.3961 44.2732 46.3523C44.377 46.299 44.8508 46.1868 44.9376 46.3896C44.8817 46.5361 45.3023 46.5585 45.5452 46.4887C45.9766 46.4918 45.9834 46.5651 46.1501 46.6008C46.2087 46.7991 46.665 46.6003 46.7407 46.7778C47.0011 46.7623 46.9799 47.0042 47.3201 46.9899C47.751 47.1079 47.9354 47.0968 47.8955 47.2194C48.1042 47.3617 47.9804 47.4463 48.4171 47.565C48.7996 47.6093 48.8603 47.9385 48.9561 47.8759" stroke="#84A4E3" stroke-width="0.405494" stroke-miterlimit="10" stroke-linecap="round" stroke-linejoin="round"/>
  <path d="M36.9023 47.0284C36.9231 46.94 37.0431 47.3079 37.4857 47.2418C37.9204 47.3762 37.8879 47.3445 38.072 47.4767C38.1136 47.4604 38.678 47.3901 38.6919 47.5656C38.6715 47.4167 39.2448 47.6899 39.3166 47.5679C39.4631 47.7019 39.7529 47.5788 39.9384 47.534C39.9787 47.6098 40.1171 47.6757 40.5616 47.5474C40.7797 47.5809 41.227 47.3884 41.1785 47.4458C41.1582 47.4204 41.3675 47.4128 41.8036 47.4517C41.8808 47.5488 42.2883 47.2529 42.4249 47.4084C42.5619 47.5795 42.7908 47.3766 43.0416 47.3018C43.1715 47.3785 43.4565 47.363 43.666 47.3371C44.0895 47.3724 43.9874 47.4451 44.2874 47.2769C44.3496 47.2537 44.6234 47.3394 44.9053 47.3633C45.098 47.3125 45.3854 47.4344 45.521 47.4367C45.9485 47.3077 45.9337 47.5045 46.1428 47.4968C46.6086 47.6822 46.3288 47.5092 46.7486 47.6554C46.8788 47.8046 47.228 47.6995 47.3387 47.8715C47.7882 48.1369 47.5395 48.0812 47.9063 48.1456C47.9458 48.0805 48.2907 48.3742 48.4293 48.5056C48.5904 48.7135 48.5664 48.6451 48.9554 48.8514" stroke="#84A4E3" stroke-width="0.405494" stroke-miterlimit="10" stroke-linecap="round" stroke-linejoin="round"/>
  <path d="M36.7578 47.9992C37.2005 47.9363 37.1154 48.2662 37.3581 48.1955C37.5501 48.2672 37.846 48.3572 37.9514 48.4352C38.2772 48.3895 38.3163 48.31 38.5822 48.4959C38.8419 48.4638 38.9775 48.6339 39.2116 48.5543C39.6726 48.4597 39.3991 48.5155 39.843 48.5374C40.3185 48.6511 40.5147 48.7148 40.4745 48.5297C40.5014 48.3495 40.7894 48.4636 41.1023 48.4604C41.4433 48.5555 41.6002 48.294 41.7312 48.411C42.1611 48.5496 42.3889 48.2555 42.3577 48.3336C42.387 48.3564 42.5938 48.2562 42.9844 48.2581C43.1397 48.36 43.2915 48.4025 43.6145 48.2288C43.6628 48.2132 43.9723 48.0084 44.2456 48.1924C44.5642 48.3565 44.6785 48.417 44.8733 48.2748C45.1679 48.3866 45.1226 48.3108 45.4904 48.3928C45.9461 48.4767 45.6501 48.4256 46.1197 48.442C46.2388 48.5466 46.3812 48.6198 46.7083 48.6812C46.8811 48.5954 47.0468 48.8763 47.3008 48.8901C47.2494 49.0748 47.7531 49.0476 47.9031 49.0896C48.0955 49.1973 48.3677 49.2607 48.4507 49.4183C48.5862 49.372 49.0136 49.6908 48.9601 49.8082" stroke="#84A4E3" stroke-width="0.405494" stroke-miterlimit="10" stroke-linecap="round" stroke-linejoin="round"/>
  <path d="M36.625 48.9337C36.9248 48.9048 36.8585 48.9491 37.2205 49.1688C37.32 49.1034 37.7769 49.4583 37.8327 49.3573C37.778 49.5858 38.0521 49.339 38.4638 49.4672C38.8444 49.5229 38.9256 49.6351 39.103 49.4716C39.232 49.6034 39.4569 49.656 39.7419 49.5211C40.2037 49.3605 40.1208 49.5589 40.3759 49.4093C40.5791 49.4027 40.9023 49.355 41.0126 49.3729C41.3451 49.2678 41.3801 49.1536 41.6468 49.2973C41.9117 49.2234 42.0545 49.4024 42.288 49.2973C42.7538 49.1771 42.482 49.2517 42.9251 49.2636C43.406 49.3672 43.6012 49.4001 43.5609 49.2206C43.5936 49.0456 43.8848 49.123 44.198 49.1414C44.545 49.2581 44.7068 49.0125 44.8378 49.1688C45.2725 49.3474 45.5027 49.13 45.4682 49.26C45.4991 49.3357 45.6989 49.3588 46.0846 49.4239C46.2366 49.5902 46.3807 49.6965 46.6965 49.5952C46.7349 49.6526 47.0247 49.5725 47.287 49.8348C47.5886 50.0764 47.7069 50.1201 47.8865 50.0567C48.1566 50.2448 48.0656 50.2678 48.4157 50.4299C48.8415 50.5896 48.5479 50.6185 48.9953 50.7126" stroke="#84A4E3" stroke-width="0.405494" stroke-miterlimit="10" stroke-linecap="round" stroke-linejoin="round"/>
  <path d="M36.5 49.873C36.7487 50.0315 36.8421 50.1907 37.1061 50.0964C37.3527 49.9793 37.3432 50.101 37.7169 50.3187C38.1229 50.5141 38.0441 50.2242 38.3614 50.3702C38.376 50.5737 39.0187 50.3026 39.0023 50.4743C39.2498 50.59 39.5116 50.6552 39.6499 50.4799C39.9697 50.3496 39.9177 50.2493 40.2929 50.3872C40.404 50.2404 40.8803 50.5536 40.9412 50.3902C40.8934 50.5569 41.1683 50.1968 41.5808 50.281C41.9665 50.2932 42.0456 50.385 42.2224 50.1947C42.3559 50.2997 42.5861 50.332 42.8702 50.1865C43.3373 50.015 43.2603 50.3035 43.5151 50.1593C43.7244 50.1578 44.049 50.091 44.1596 50.131C44.4984 50.0479 44.5373 49.9751 44.8039 50.1592C45.0732 50.1261 45.211 50.2813 45.4406 50.2293C45.9075 50.1634 45.6276 50.2983 46.0654 50.375C46.5422 50.5445 46.7375 50.6311 46.6892 50.5256C46.7114 50.4254 47.0023 50.6237 47.3038 50.722C47.6328 50.918 47.7767 50.759 47.8918 50.9957C48.3015 51.2521 48.4998 51.1248 48.4472 51.3362C48.4477 51.4892 48.641 51.5297 49.0041 51.6738" stroke="#84A4E3" stroke-width="0.405494" stroke-miterlimit="10" stroke-linecap="round" stroke-linejoin="round"/>
  <path d="M36.3633 50.8232C36.8042 50.7778 36.5726 51.1512 36.9742 51.0611C37.0184 51.0841 37.4481 51.0977 37.5972 51.2681C37.6923 51.1262 37.8218 51.3391 38.246 51.3525C38.23 51.1945 38.7582 51.2689 38.8975 51.4101C39.2159 51.2551 39.4412 51.3026 39.5516 51.4067C39.821 51.4604 39.9262 51.54 40.2043 51.3609C40.4628 51.1594 40.4813 51.2037 40.8605 51.3565C41.2735 51.4877 41.1878 51.1267 41.5061 51.227C41.5257 51.3852 42.172 50.9868 42.1547 51.1307C42.4068 51.2183 42.6761 51.345 42.8134 51.1585C43.1386 51.0167 43.0862 50.8805 43.461 51.0238C43.5782 50.8819 44.0555 51.1721 44.1167 51.0311C44.0752 51.2203 44.3542 50.997 44.7666 51.1225C45.1564 51.1764 45.238 51.3121 45.4104 51.1762C45.5447 51.3368 45.7633 51.3985 46.0416 51.3194C46.5041 51.2155 46.4318 51.5159 46.6782 51.4477C46.8761 51.5227 47.1768 51.5923 47.275 51.7139C47.5948 51.7118 47.6371 51.6762 47.887 51.9422C48.1306 51.9885 48.2361 52.2563 48.4473 52.2873C48.8831 52.2999 48.5753 52.5029 48.9899 52.6598" stroke="#84A4E3" stroke-width="0.405494" stroke-miterlimit="10" stroke-linecap="round" stroke-linejoin="round"/>
  <path d="M36.2422 51.7499C36.5472 51.7285 36.7191 51.898 36.8512 52.0098C37.0625 51.996 37.2566 52.2723 37.4866 52.1882C37.5106 52.2722 37.7214 52.3182 38.1383 52.2844C38.2442 52.2761 38.7064 52.4038 38.7949 52.3625C39.2381 52.5311 39.0858 52.5223 39.4561 52.3525C39.8002 52.1737 40.1055 52.5094 40.1194 52.3553C40.1102 52.4534 40.6281 52.282 40.7804 52.306C41.1779 52.3663 41.4847 52.4065 41.4396 52.2372C41.6459 52.3755 42.1281 52.0523 42.0905 52.0857C42.5034 51.9901 42.7651 52.03 42.7555 52.0879C43.1353 52.0314 43.1106 52.0917 43.4152 52.0391C43.4066 51.9986 44.1214 52.0906 44.0759 51.9785C44.5464 51.8421 44.3064 52.044 44.7397 51.9916C45.1362 52.1504 44.9174 51.9032 45.3866 52.1013C45.8407 52.112 45.652 52.1746 46.018 52.28C45.9925 52.2565 46.615 52.4992 46.6462 52.4549C47.0717 52.5956 47.2526 52.4654 47.2679 52.6597C47.2655 52.9294 47.4027 52.9731 47.865 52.9362C48.2088 52.9164 48.1912 53.1344 48.4306 53.2785C48.375 53.4504 48.6403 53.53 49.0034 53.6112" stroke="#84A4E3" stroke-width="0.405494" stroke-miterlimit="10" stroke-linecap="round" stroke-linejoin="round"/>
  <path d="M36.0781 52.7637C36.5429 53.0531 36.3519 52.8073 36.7065 53.0231C36.9726 52.9886 37.0268 53.0093 37.3708 53.1334C37.39 53.2235 37.7984 53.3863 38.0196 53.3294C37.9788 53.3083 38.2694 53.196 38.6925 53.3168C39.1222 53.4128 39.3309 53.334 39.3607 53.2836C39.4048 53.2014 39.9855 53.2618 40.0317 53.2982C40.3083 53.2794 40.5998 53.2666 40.6991 53.2342C40.7359 53.3454 41.0925 53.3526 41.3685 53.1892C41.5095 53.2423 41.8532 52.9939 42.0297 53.0637C42.1863 52.8809 42.2469 53.1521 42.6993 53.0279C42.6934 52.9196 43.3894 52.8481 43.3671 52.9826C43.3976 53.1317 43.6519 52.8807 44.0354 52.9297C44.3271 52.8053 44.368 52.7555 44.7049 52.9607C44.7227 52.9895 44.9173 52.8151 45.3621 53.0295C45.6631 52.9287 45.9005 52.9532 46.01 53.1645C46.3352 53.1049 46.476 53.3908 46.6318 53.3987C46.7825 53.6309 47.1004 53.3241 47.2628 53.5966C47.304 53.5086 47.8547 53.9433 47.8574 53.8949C47.9505 53.8732 48.0715 54.2415 48.4616 54.1795C48.8814 54.129 48.8357 54.5819 48.9875 54.6045" stroke="#84A4E3" stroke-width="0.405494" stroke-miterlimit="10" stroke-linecap="round" stroke-linejoin="round"/>
  <path d="M35.9766 53.6357C36.3156 53.6439 36.2186 54.0068 36.5405 53.925C36.6905 53.8211 37.1681 54.0469 37.1336 54.1584C37.3987 54.0933 37.4877 54.2104 37.767 54.1927C37.8011 54.1989 38.1151 54.2868 38.3883 54.3173C38.6235 54.3498 39.0723 54.3626 39.0189 54.2966C38.9841 54.1074 39.1789 54.3951 39.6485 54.28C40.0563 54.228 40.2195 54.3003 40.2732 54.1923C40.5899 54.3118 40.6287 54.1393 40.8983 54.1172C40.9914 54.2772 41.3824 54.234 41.5267 54.0697C41.8991 53.8982 41.8158 53.8742 42.1519 53.9888C42.3016 54.0907 42.6751 53.8003 42.7773 53.9075C43.0646 53.8504 43.2025 53.8225 43.4081 53.8993C43.6068 54.0194 43.6387 53.9308 44.0369 53.8943C44.0534 53.9533 44.3481 53.8488 44.6664 53.8978C45.0258 53.9638 45.3322 54.1439 45.3235 54.0148C45.3981 54.2119 45.8931 53.8928 45.982 54.1153C46.4076 54.3048 46.1831 54.3523 46.6223 54.3071C46.9022 54.3308 47.2158 54.5499 47.244 54.5554C47.7129 54.7873 47.663 54.8421 47.8773 54.7848C48.3297 54.8312 48.4335 54.9819 48.4353 55.1751C48.8511 55.2153 48.9868 55.3497 49.0161 55.5213" stroke="#84A4E3" stroke-width="0.405494" stroke-miterlimit="10" stroke-linecap="round" stroke-linejoin="round"/>
  <path d="M35.7852 54.6113C35.9176 54.6282 36.37 54.8119 36.4237 54.8469C36.5779 54.9979 36.7495 54.8413 37.0225 55.0707C37.2706 55.031 37.2555 55.066 37.6455 55.2185C37.6618 55.3944 37.8661 55.4208 38.2828 55.2608C38.4537 55.3237 38.8589 55.1445 38.9206 55.2877C39.3523 55.4459 39.496 55.1871 39.5586 55.2669C39.6441 55.4086 39.9268 54.9693 40.1869 55.1266C40.637 55.0436 40.6787 55.0536 40.8286 55.1427C40.9697 55.1633 41.0689 54.9843 41.4521 54.9795C41.6017 54.9331 41.9119 55.0424 42.0949 54.9957C42.572 55.034 42.2671 54.6715 42.7202 54.8381C42.6747 54.9202 43.3503 54.8443 43.361 54.872C43.7313 54.9487 43.8943 54.9282 43.9959 54.7896C44.15 54.7887 44.3102 54.974 44.6347 54.8074C44.9264 54.9657 45.2407 54.778 45.2953 54.9587C45.3919 54.8562 45.6831 55.1364 45.9592 55.0631C46.2849 54.9904 46.4753 55.1254 46.6116 55.2345C46.8275 55.2182 47.0229 55.5176 47.244 55.4763C47.2594 55.6026 47.4495 55.739 47.8476 55.7884C47.9335 55.8611 48.3636 56.0723 48.4254 56.148C48.8391 56.4294 48.6963 56.5238 49.0332 56.4976" stroke="#84A4E3" stroke-width="0.405494" stroke-miterlimit="10" stroke-linecap="round" stroke-linejoin="round"/>
  <path d="M53.5492 46.1031L48.5295 55.4514L48.1192 55.2058L47.6875 54.9469L52.7072 45.5986L53.1515 45.8647L53.5492 46.1031Z" fill="#E67E17"/>
  <path d="M54.3896 44.536L54.1388 45.0024L53.7441 44.7661L53.2969 44.4979L53.5477 44.0315C53.6799 43.786 53.9744 43.6996 54.2078 43.8394C54.2165 43.8445 54.2253 43.8496 54.2331 43.8568C54.3352 43.9256 54.4052 44.0304 54.4353 44.1476C54.4683 44.2739 54.4557 44.4137 54.3896 44.536Z" fill="#CC4760"/>
  <path d="M54.1352 45.0044L53.9438 45.361L53.7367 45.7483L53.5451 46.1048L53.1474 45.8664L52.7031 45.6003L52.8947 45.2439L53.1027 44.8565L53.2933 44.5L53.7405 44.7681L54.1352 45.0044Z" fill="#E6EEFF"/>
  <path d="M53.9436 45.3589L53.7365 45.7463L53.3398 45.5089L52.8945 45.2418L53.1025 44.8545L53.5479 45.1216L53.9436 45.3589Z" fill="#B3CDFF"/>
  <path d="M48.5266 55.4528L47.6486 56.4884L47.2821 56.9209C47.2529 56.9558 47.2121 56.961 47.179 56.9456C47.1411 56.9271 47.1139 56.8829 47.1294 56.8305L47.2937 56.2747L47.6846 54.9473L48.1162 55.2062L48.5266 55.4528Z" fill="#FFB266"/>
  <path d="M47.6486 56.4891L47.2821 56.9216C47.2529 56.9566 47.2121 56.9617 47.179 56.9463C47.1411 56.9278 47.1139 56.8836 47.1294 56.8312L47.2937 56.2754L47.4804 56.3874L47.6486 56.4891Z" fill="#334D80"/>
  <path opacity="0.7" d="M47.481 56.3875L48.1169 55.207L48.5272 55.4536L47.6493 56.4892L47.2827 56.9217C47.2535 56.9567 47.2127 56.9618 47.1797 56.9464L47.481 56.3875Z" fill="black"/>
  <path opacity="0.7" d="M54.3921 44.5355L54.1413 45.0019L53.9497 45.3584L53.7426 45.7457L53.5511 46.1023L48.5314 55.4506L48.1211 55.2051L53.1535 45.8639L53.346 45.5085L53.5541 45.1212L53.7466 44.7657L54.2356 43.8564C54.3377 43.9253 54.4077 44.0301 54.4378 44.1472C54.4708 44.2735 54.4581 44.4132 54.3921 44.5355Z" fill="black"/>
  <defs>
    <radialGradient id="paint0_radial_7_9508" cx="0" cy="0" r="1" gradientUnits="userSpaceOnUse" gradientTransform="translate(50.2812 50.2812) rotate(90) scale(50.2813)">
      <stop stop-color="white"/>
      <stop offset="0.663714" stop-color="#26C1A2" stop-opacity="0.16"/>
    </radialGradient>
    <radialGradient id="paint1_radial_7_9508" cx="0" cy="0" r="1" gradientUnits="userSpaceOnUse" gradientTransform="translate(50.2813 33.3509) rotate(90) scale(57.4798)">
      <stop stop-color="white"/>
      <stop offset="0.663714" stop-color="#26C1A2" stop-opacity="0.4"/>
    </radialGradient>
  </defs>
</svg>



